<svg width="89" height="22" viewBox="0 0 89 22" fill="none" xmlns="http://www.w3.org/2000/svg">
<path fill-rule="evenodd" clip-rule="evenodd" d="M7.19577 10.0425C11.773 7.82886 13.1461 15.2359 10.1182 17.1516C7.38942 18.8714 4.54638 15.8148 5.63784 11.9325C5.98116 10.715 6.42994 10.4171 7.19577 10.051V10.0425ZM11.4605 7.06684C9.57682 5.10013 6.10437 5.16394 3.80698 6.83283C-0.136438 9.71052 -0.277286 17.4413 3.91282 20.4211C6.82639 22.49 9.19818 21.5173 11.786 20.1212L11.8109 21.3663L16.0976 21.323L16.0629 5.87019L11.8113 5.90398C11.6971 6.14225 11.7497 7.00231 11.6881 7.14705C11.3184 7.91334 11.8993 7.33004 11.4635 7.06626L11.4605 7.06684Z" fill="white"/>
<path d="M11.519 7.48139C11.5389 7.47176 11.5588 7.5006 11.5777 7.49578C11.5877 7.49578 11.5927 7.4862 11.6026 7.48139C11.6175 7.47657 11.6274 7.48139 11.6423 7.48139C11.6771 7.4862 11.682 7.49579 11.6622 7.53574C11.6587 7.54055 11.6224 7.54059 11.6174 7.54059C11.5876 7.54059 11.6076 7.54541 11.5877 7.52134C11.5847 7.51653 11.5777 7.5165 11.5777 7.5165C11.5752 7.50687 11.5876 7.49237 11.5926 7.48756C11.5961 7.47793 11.5966 7.46843 11.6026 7.46361C11.6125 7.45398 11.6597 7.4588 11.6716 7.46361L11.6667 7.51356C11.6518 7.51356 11.6517 7.50874 11.6319 7.51356C11.6269 7.5138 11.622 7.51837 11.617 7.51356C11.6071 7.50874 11.6021 7.50398 11.5971 7.49916C11.5872 7.49916 11.5773 7.4992 11.5823 7.50401C11.5843 7.50401 11.5866 7.4992 11.5871 7.50401C11.5891 7.50425 11.5891 7.50886 11.5906 7.50886C11.5951 7.50404 11.5956 7.49913 11.6006 7.49431C11.6031 7.49431 11.6055 7.4948 11.6105 7.49431C11.6403 7.49431 11.607 7.4948 11.6353 7.49431C11.6368 7.49417 11.6399 7.49441 11.6399 7.49417C11.6424 7.55482 11.6249 7.52306 11.6497 7.5375C11.6517 7.5375 11.6457 7.5375 11.6447 7.5375C11.6298 7.5375 11.6199 7.54232 11.605 7.5375C11.5951 7.53269 11.5901 7.52296 11.5801 7.52296C11.5603 7.51815 11.5405 7.54713 11.5216 7.5375V7.48697L11.519 7.48139Z" fill="white" stroke="#00448C" stroke-width="0.122158"/>
<path d="M11.5604 7.37989C11.5653 7.37989 11.5702 7.38477 11.5752 7.38959C11.5777 7.39007 11.6151 7.39003 11.6151 7.39003C11.635 7.39008 11.6548 7.39003 11.6732 7.39003C11.693 7.39022 11.7029 7.38516 11.683 7.42367C11.6825 7.42367 11.6532 7.42367 11.6433 7.42367C11.6234 7.4333 11.6086 7.39958 11.5887 7.39958C11.5837 7.40006 11.5788 7.40443 11.5739 7.40443C11.5689 7.40443 11.5638 7.40927 11.5538 7.40927C11.529 7.39002 11.5142 7.35484 11.544 7.33318C11.549 7.32836 11.5589 7.32844 11.5638 7.32363C11.5688 7.32358 11.5787 7.31876 11.5837 7.32334C11.5887 7.32815 11.6035 7.35221 11.6184 7.34258C11.6433 7.32814 11.6235 7.31371 11.6583 7.32334C11.703 7.34259 11.6483 7.38303 11.6284 7.37196C11.6235 7.36715 11.6185 7.35753 11.6136 7.35272C11.5987 7.34309 11.5788 7.37199 11.5739 7.37681C11.5391 7.37681 11.5042 7.34786 11.534 7.3132C11.538 7.30839 11.544 7.30847 11.549 7.30365C11.5535 7.30365 11.5837 7.29396 11.5887 7.29396C11.5986 7.29877 11.5987 7.31801 11.6136 7.3132C11.6235 7.3132 11.6235 7.29392 11.6284 7.28911C11.6319 7.28911 11.6632 7.28911 11.6682 7.28911C11.7129 7.28911 11.7536 7.34023 11.688 7.35756C11.6781 7.35756 11.6295 7.36234 11.626 7.35272C11.6012 7.3041 11.6309 7.33825 11.6219 7.32862C11.6224 7.319 11.6184 7.30935 11.6239 7.30453C11.6284 7.29972 11.6855 7.30938 11.6935 7.30938L11.6836 7.35903C11.6787 7.35903 11.6389 7.35415 11.6339 7.34934C11.6294 7.34452 11.6289 7.33487 11.6239 7.32525C11.6289 7.33487 11.62 7.32044 11.6339 7.306C11.6369 7.30119 11.6687 7.31082 11.6786 7.306C11.6935 7.30624 11.6736 7.30603 11.6736 7.33009C11.6737 7.33491 11.6787 7.33968 11.6836 7.34449C11.6839 7.34497 11.6851 7.34458 11.6851 7.34434C11.6802 7.33953 11.6751 7.33964 11.6701 7.33964C11.6677 7.3394 11.6404 7.33479 11.6404 7.33479C11.6305 7.32998 11.6305 7.3107 11.6206 7.3107C11.6106 7.3107 11.6155 7.33001 11.6055 7.33964C11.6006 7.34446 11.5906 7.33929 11.5857 7.34434C11.5757 7.34434 11.5957 7.32025 11.5708 7.32025C11.5703 7.32015 11.5713 7.32025 11.5713 7.32025C11.5743 7.32025 11.5763 7.32025 11.5813 7.32025C11.5863 7.32506 11.6111 7.35397 11.621 7.34434C11.626 7.33953 11.6259 7.32988 11.6309 7.32025C11.6408 7.31062 11.7139 7.32026 11.6409 7.36359C11.6458 7.36359 11.6404 7.36394 11.6374 7.35889C11.6324 7.34926 11.6323 7.33961 11.6274 7.33479C11.6125 7.32035 11.6026 7.35407 11.5977 7.35889C11.5952 7.3637 11.5877 7.36359 11.5877 7.36359C11.5867 7.36339 11.5847 7.36411 11.5837 7.36315C11.5835 7.36315 11.5793 7.33904 11.5848 7.3583C11.5843 7.37755 11.5872 7.40171 11.6145 7.39209C11.6195 7.39209 11.6245 7.38239 11.6295 7.38239C11.6345 7.38239 11.6394 7.38239 11.6444 7.38239C11.6543 7.38239 11.6841 7.38239 11.6841 7.38239C11.704 7.4209 11.694 7.41618 11.6741 7.41618C11.6542 7.41618 11.6344 7.41613 11.616 7.41618C11.615 7.41618 11.5763 7.41618 11.5763 7.41662C11.5713 7.41662 11.5664 7.42135 11.5614 7.42617V7.37813L11.5604 7.37989Z" fill="white" stroke="#00448C" stroke-width="0.122158"/>
<path fill-rule="evenodd" clip-rule="evenodd" d="M22.53 21.3319C22.8469 18.6586 21.1128 8.50141 25.3291 9.62525C28.6299 10.5107 25.1796 18.5394 27.9698 21.366L32.4413 21.2808C30.9537 18.4627 31.3234 18.7861 31.3146 15.1677C31.3146 13.0563 30.9097 9.59117 33.5592 9.59117C37.7756 9.59117 33.4802 18.5647 36.9745 21.3573L41.4725 21.314C38.5677 18.3341 41.0059 13.2769 39.7207 8.92629C39.2368 7.29163 37.7844 5.8358 35.663 5.63146C32.7406 5.35034 32.0452 6.28698 30.452 7.56408C29.4133 6.79785 28.9292 5.75069 26.7022 5.62294C24.6689 5.50356 23.2841 6.12994 22.3423 7.16863L22.3075 6.11079C22.2877 6.00008 22.2563 5.95582 22.2037 5.87928L18.0762 5.93804L18.182 21.3736L22.5303 21.34L22.53 21.3319Z" fill="white"/>
<path fill-rule="evenodd" clip-rule="evenodd" d="M48.5226 10.0847C53.1526 7.64121 54.376 15.738 51.2336 17.2705C48.901 18.4029 47.3079 16.6063 46.8414 14.9802C46.3659 13.337 46.6566 11.0723 48.5226 10.0847ZM46.6881 20.3246C48.755 21.9197 52.7301 21.9787 54.7898 20.1142C59.0941 16.1978 58.2579 9.19082 54.2441 6.58553C51.1809 4.60183 49.0067 5.87047 46.8414 7.13053L46.8065 0.387497L42.2998 0.464032L42.414 21.3742L46.5751 21.3983C46.6899 20.3186 46.5766 21.4079 46.5753 21.4127L46.6881 20.3246Z" fill="white"/>
<path fill-rule="evenodd" clip-rule="evenodd" d="M63.3108 12.0006C64.0061 8.27151 68.1257 8.33969 68.6538 12.0103L63.3108 12.0006ZM72.43 16.3853C69.4813 17.4155 64.4638 19.4077 63.302 15.2274L73.1517 15.0488C73.3455 10.6471 71.981 7.28415 68.7681 6.02408C60.2915 2.70368 55.0806 14.6997 61.3654 19.7996C64.0061 21.945 69.1114 22.3538 71.8754 20.0889C72.3156 19.212 72.4036 17.6794 72.4212 16.3853H72.43Z" fill="white"/>
<path fill-rule="evenodd" clip-rule="evenodd" d="M88.1244 5.88772L83.3712 5.97292L80.3169 15.9938L77.3591 5.8792L72.6588 5.88889C72.8084 7.20855 77.2888 20.2262 77.9578 21.3586L82.9046 21.3827L88.1332 5.89594L88.1244 5.88772Z" fill="white"/>
</svg>
